<svg xmlns="http://www.w3.org/2000/svg" width="30" height="30" viewBox="0 0 30 30">
  <g fill="none" fill-rule="evenodd">
    <rect width="30" height="30" fill="#292F33" opacity=".15"/>
    <path fill="#FFFFFF" d="M15.4081361,23 L13.2751009,23 C13.2751009,23 13.2813614,21.7344885 13.2751009,20.8669648 C10.3559282,21.4956959 9.54117136,19.2669648 9.54117136,19.2669648 C9.00813614,18.2 8.47420657,17.6669648 8.47420657,17.6669648 C7.40724179,17.0337619 8.47420657,17.1339296 8.47420657,17.1339296 C9.54117136,17.1339296 10.0742066,18.2008944 10.0742066,18.2008944 C11.0105956,19.7901621 12.6758835,19.5343767 13.2742066,19.2678591 C13.2742066,18.7348239 13.5076331,17.9281163 13.8072418,17.6678591 C11.4774486,17.4058133 9.53848829,16.0678591 9.53848829,13.4008944 C9.53848829,10.7339296 10.0742066,10.2008944 10.6072418,9.66696478 C10.4999193,9.40402459 10.0527421,8.43186138 10.6233402,7 C10.6233402,7 11.6715235,7 12.7384883,8.6 C13.2670517,8.07143656 14.8715235,8.06696478 15.4054531,8.06696478 C15.9375939,8.06696478 17.5429601,8.07143656 18.0715235,8.6 C19.1384883,7 20.1893547,7 20.1893547,7 C20.7599528,8.43186138 20.31367,9.40402459 20.2054531,9.66696478 C20.7384883,10.2 21.2724179,10.7339296 21.2724179,13.4008944 C21.2724179,16.0678591 19.3361406,17.4049189 17.0054531,17.6678591 C17.3059562,17.9281163 17.5384883,18.8457239 17.5384883,19.2678591 L17.5393826,23 L15.4081361,23 Z"/>
  </g>
</svg>
