<svg xmlns="http://www.w3.org/2000/svg" width="30" height="30" viewBox="0 0 30 30">
  <g fill="none" fill-rule="evenodd">
    <rect width="30" height="30" fill="#292F33" opacity=".15"/>
    <path fill="#FFFFFF" d="M22.6798825,15.1801273 C22.6798825,19.7498776 19.6206559,23 15,23 C10.5800294,23 7,19.4199706 7,15 C7,10.5800294 10.5800294,7 15,7 C17.1605482,7 18.9647577,7.79490945 20.3499755,9.08516887 L18.0944689,11.3406755 C17.2545277,10.5359765 16.1894273,10.1257954 15,10.1257954 C12.3597651,10.1257954 10.2148801,12.3558492 10.2148801,14.9960842 C10.2148801,17.6353402 12.3597651,19.8712677 15,19.8712677 C17.3945179,19.8712677 19.0244738,18.5007342 19.3602545,16.6211454 L15,16.6211454 L15,13.5012237 L22.525208,13.5002447 C22.6250612,14.0347528 22.6798825,14.5947137 22.6798825,15.1801273 Z"/>
  </g>
</svg>
