<svg xmlns="http://www.w3.org/2000/svg" width="30" height="30" viewBox="0 0 30 30">
  <g fill="none" fill-rule="evenodd">
    <rect width="30" height="30" fill="#292F33" opacity=".15"/>
    <path fill="#FFFFFF" d="M22.744,22.049 L22.744,16.227 C22.744,13.108 21.079,11.656 18.859,11.656 C17.067,11.656 16.265,12.642 15.817,13.333 L15.817,11.895 L12.442,11.895 C12.487,12.848 12.442,22.049 12.442,22.049 L15.817,22.049 L15.817,16.378 C15.817,16.075 15.839,15.772 15.928,15.555 C16.172,14.949 16.727,14.321 17.659,14.321 C18.881,14.321 19.369,15.252 19.369,16.617 L19.369,22.05 L22.744,22.049 L22.744,22.049 Z M8.887,10.509 C10.064,10.509 10.797,9.729 10.797,8.754 C10.775,7.758 10.064,7 8.91,7 C7.756,7 7,7.758 7,8.754 C7,9.729 7.733,10.509 8.866,10.509 L8.887,10.509 L8.887,10.509 Z M10.574,22.049 L10.574,11.895 L7.199,11.895 L7.199,22.049 L10.574,22.049 Z"/>
  </g>
</svg>
