<svg xmlns="http://www.w3.org/2000/svg" width="30" height="30" viewBox="0 0 30 30">
  <g fill="none" fill-rule="evenodd">
    <rect width="30" height="30" fill="#292F33" opacity=".15"/>
    <path fill="#FFFFFF" d="M5.89735594,15.2760984 C12.9726861,15.2760984 16.8442347,9.4087515 16.8442347,4.32921969 C16.8442347,4.16415366 16.8442347,3.99908764 16.8367317,3.83402161 C17.5870318,3.29380552 18.2397929,2.61103241 18.7575,1.83822329 C18.0672239,2.14584634 17.3244268,2.34842737 16.5441146,2.44596639 C17.3394328,1.97327731 17.9471759,1.21547419 18.2397929,0.315114046 C17.4969958,0.757791116 16.6716657,1.07291717 15.7938145,1.24548619 C15.0885324,0.495186074 14.0906333,0.03 12.9876921,0.03 C10.8643427,0.03 9.13865246,1.75569028 9.13865246,3.87903962 C9.13865246,4.17915966 9.17616747,4.47177671 9.23619148,4.75689076 C6.03991297,4.59932773 3.20377851,3.06121248 1.30551921,0.735282113 C0.975387155,1.3055102 0.787812125,1.96577431 0.787812125,2.67105642 C0.787812125,4.00659064 1.47058523,5.18456182 2.4984964,5.87483794 C1.8682443,5.85232893 1.2755072,5.6797599 0.75780012,5.39464586 L0.75780012,5.44716687 C0.75780012,7.30791116 2.08583133,8.86853541 3.84153361,9.22117647 C3.51890456,9.31121248 3.18126951,9.35623049 2.82862845,9.35623049 C2.58102941,9.35623049 2.34093337,9.33372149 2.10834034,9.28870348 C2.59603541,10.8193157 4.02160564,11.9297599 5.70227791,11.9597719 C4.3817497,12.9951861 2.72358643,13.6104322 0.922866146,13.6104322 C0.615243097,13.6104322 0.307620048,13.5954262 0.0075,13.5579112 C1.70317827,14.6383433 3.7289886,15.2760984 5.89735594,15.2760984" transform="translate(5.625 7.35)"/>
  </g>
</svg>
